# xmcd
#
# Track frame offsets:
#	150
#	12147
#	24765
#	36435
#	48405
#	60992
#	72797
#	85890
#	99872
#	113232
#	125220
#	139090
#	153330
#	163397
#	177647
#	195047
#	206812
#	218460
#	231060
#	241757
#	252387
#	262540
#	272145
#	284070
#	292167
#	311122
#	325385
#	336192
#
# Disc length: 4628 seconds
#
# Revision: 1
# Processed by: cddbd v1.4PL0 Copyright (c) Steve Scherf et al.
# Submitted via: MusicWizard 6.0.0
#
DISCID=9912121c
DTITLE=Johnny Cash - The Man In Black, 1963-1969 CD 1/6
DYEAR=1995
DGENRE=Country
TTITLE0=Ring Of Fire
TTITLE1=The Matador
TTITLE2=I'd Still Be There
TTITLE3=Still In Town
TTITLE4=El Matador (spanish)
TTITLE5=Fuego D'Amor (Anillo De Fuego) (spanish)
TTITLE6=My Old Faded Rose
TTITLE7=It Ain't Me Babe
TTITLE8=Don't Think Twice, It's Alright
TTITLE9=One Too Many Mornings
TTITLE10=Mama, You've Been On My Mind
TTITLE11=The Long Black Veil
TTITLE12=The Wall
TTITLE13=Orange Blossom Special
TTITLE14=Troublesome Waters
TTITLE15=I Walk The Line
TTITLE16=Folsom Prison Blues
TTITLE17=Wreck Of The Old '97
TTITLE18=Hey Porter
TTITLE19=Big River
TTITLE20=All God's Children Ain't Free
TTITLE21=Amen
TTITLE22=When It's Springtime In Alaska
TTITLE23=You Wild Colorado
TTITLE24=Danny Boy
TTITLE25=I Still Miss Someone
TTITLE26=Give My Love To Rose
TTITLE27=Goodbye Little Darlin' Goodbye
EXTD=(c)1995 Bear Family Germany\nOriginal Columbia Records
EXTT0=
EXTT1=
EXTT2=
EXTT3=
EXTT4=
EXTT5=
EXTT6=
EXTT7=
EXTT8=
EXTT9=
EXTT10=
EXTT11=
EXTT12=
EXTT13=
EXTT14=
EXTT15=
EXTT16=
EXTT17=
EXTT18=
EXTT19=
EXTT20=
EXTT21=
EXTT22=
EXTT23=
EXTT24=
EXTT25=
EXTT26=
EXTT27=
PLAYORDER=
